<svg id="Capa_1" data-name="Capa 1" xmlns="http://www.w3.org/2000/svg" xmlns:xlink="http://www.w3.org/1999/xlink" viewBox="0 0 895 895"><defs><style>.cls-1{fill:none;}.cls-2,.cls-5{stroke-miterlimit:10;}.cls-2{stroke-width:29px;stroke:url(#Degradado_sin_nombre_6);}.cls-3{clip-path:url(#clip-path);}.cls-4,.cls-5{fill:#fff;}.cls-5{stroke:#000;stroke-width:4px;}</style><linearGradient id="Degradado_sin_nombre_6" x1="131.07" y1="131.07" x2="763.93" y2="763.93" gradientUnits="userSpaceOnUse"><stop offset="0" stop-color="#f2c39d"/><stop offset="1" stop-color="#94dea6"/></linearGradient><clipPath id="clip-path" transform="translate(-85.5 -89.5)"><path class="cls-1" d="M715.13,751.54c-131.65-44.4-251.42-54.21-400.63-46.47-27.4,1.42-106.18,9.12-106.18,9.12l.86-556.38a12.17,12.17,0,0,1,12.13-12.13H821a12.16,12.16,0,0,1,12.13,12.13l1.3,644.32C845.29,803.93,800.17,780.21,715.13,751.54Z"/></clipPath></defs><title>logotipoNegro</title><circle class="cls-2" cx="447.5" cy="447.5" r="433"/><g class="cls-3"><rect class="cls-4" x="432.22" y="179.03" width="19.21" height="454.97" rx="8.5"/><rect class="cls-4" x="518.25" y="268.05" width="19.21" height="198.12" rx="8.5" transform="translate(809.47 -250.24) rotate(90)"/><rect class="cls-4" x="264.41" y="328.63" width="157.29" height="306.33" rx="12"/><rect class="cls-4" x="463.54" y="385.01" width="156.41" height="306.33" rx="12"/><rect class="cls-4" x="588.33" y="472.22" width="156.41" height="306.33" rx="12"/><rect class="cls-5" x="122.52" y="389.55" width="175.79" height="260.89" rx="12"/><circle cx="518.04" cy="502.09" r="11.63"/><circle cx="566.57" cy="502.09" r="11.63"/><circle cx="685.88" cy="551.63" r="11.63"/><circle cx="610.05" cy="564.77" r="8.59"/><circle cx="647.46" cy="598.14" r="8.59"/><path d="M594.71,725.49l-2.39-18.77s-13.55-4.42-14.56-18.58l10.11-31.34V627a15.67,15.67,0,0,1,31.34,0V656.8l10.11,32.35c-4,15.17-15.16,17.19-15.16,17.19l-2.8,21.73Z" transform="translate(-85.5 -89.5)"/><path d="M644.66,737l-8.26-61.91V628a15.71,15.71,0,0,1,15.67-15.67h0A15.71,15.71,0,0,1,667.74,628v46.31L658.6,741Z" transform="translate(-85.5 -89.5)"/><path d="M763.15,773.76l-7.44-52.58V674.49a15.71,15.71,0,0,1,15.67-15.67h0a15.71,15.71,0,0,1,15.67,15.67v46.87l-7.51,59.11Z" transform="translate(-85.5 -89.5)"/><path d="M702.61,752.2l-14.06-3.87s-4.87-30.38-4.87-36.77V678.19a11.66,11.66,0,0,1,11.63-11.62h1A11.66,11.66,0,0,1,708,678.19v33.37C708,718,702.61,752.2,702.61,752.2Z" transform="translate(-85.5 -89.5)"/><path d="M737.81,764.38l-10.67-2.07s-3.79-24.68-3.79-29.68V710.38a9.12,9.12,0,0,1,9.1-9.09h1a9.12,9.12,0,0,1,9.1,9.09v22.25C742.56,737.63,737.81,764.38,737.81,764.38Z" transform="translate(-85.5 -89.5)"/></g></svg>