<svg id="Capa_1" data-name="Capa 1" xmlns="http://www.w3.org/2000/svg" xmlns:xlink="http://www.w3.org/1999/xlink" viewBox="0 0 2313.46 592.96"><defs><style>.cls-1{fill:none;}.cls-2{clip-path:url(#clip-path);}.cls-3{fill:#e95332;}.cls-4{fill:#a89e98;}.cls-5{fill:#97c40c;opacity:0.8;}.cls-6{fill:#958982;}.cls-7{fill:#fff;}.cls-8{fill:#5e5856;}</style><clipPath id="clip-path" transform="translate(-30 -17.53)"><path class="cls-1" d="M531.57,495.26c-130.21-43.92-248.68-53.62-396.25-46-27.11,1.4-105,9-105,9L31.15-92a12,12,0,0,1,12-12H636.26a12,12,0,0,1,12,12l1.27,637.28C660.31,547.07,615.68,523.62,531.57,495.26Z"/></clipPath></defs><title>logotipo</title><g class="cls-2"><rect class="cls-3" x="306.32" width="19" height="450" rx="8.5"/><rect class="cls-3" x="336.84" y="17.05" width="19" height="195.95" rx="8.5" transform="translate(431.37 -248.84) rotate(90)"/><rect class="cls-4" x="140.34" y="147.96" width="155.57" height="302.98" rx="12"/><rect class="cls-5" y="208.21" width="173.87" height="258.04" rx="12"/><rect class="cls-6" x="337.3" y="203.72" width="154.7" height="302.98" rx="12"/><rect class="cls-6" x="460.72" y="289.98" width="154.7" height="302.98" rx="12"/><circle class="cls-7" cx="391.2" cy="319.52" r="11.5"/><circle class="cls-7" cx="439.2" cy="319.52" r="11.5"/><circle class="cls-7" cx="557.2" cy="368.52" r="11.5"/><circle class="cls-7" cx="482.2" cy="381.52" r="8.5"/><circle class="cls-7" cx="519.2" cy="414.52" r="8.5"/><path class="cls-7" d="M412.47,469.49l-2.36-18.56s-13.41-4.38-14.41-18.38l10-31v-29.5a15.5,15.5,0,0,1,31,0v29.5l10,32c-4,15-15,17-15,17L428.94,472Z" transform="translate(-30 -17.53)"/><path class="cls-7" d="M461.87,480.85l-8.17-61.23V373.05a15.55,15.55,0,0,1,15.5-15.5h0a15.55,15.55,0,0,1,15.5,15.5v45.8l-9,66Z" transform="translate(-30 -17.53)"/><path class="cls-7" d="M579.06,517.23l-7.36-52V419.05a15.55,15.55,0,0,1,15.5-15.5h0a15.55,15.55,0,0,1,15.5,15.5V465.4l-7.42,58.47Z" transform="translate(-30 -17.53)"/><path class="cls-7" d="M519.19,495.91l-13.91-3.82s-4.81-30-4.81-36.38v-33a11.53,11.53,0,0,1,11.5-11.5h1a11.54,11.54,0,0,1,11.5,11.5v33C524.47,462,519.19,495.91,519.19,495.91Z" transform="translate(-30 -17.53)"/><path class="cls-7" d="M554,508l-10.55-2s-3.75-24.41-3.75-29.36v-22a9,9,0,0,1,9-9h1a9,9,0,0,1,9,9v22C558.7,481.5,554,508,554,508Z" transform="translate(-30 -17.53)"/></g><path class="cls-8" d="M727.77,333.57H706.14l0-1h1.25a6.33,6.33,0,0,0,6.33-6.22V271.53a6.33,6.33,0,0,0-6.33-6.17h-1.25l0-1h21.63l0,1H726.5a6.33,6.33,0,0,0-6.33,6.15v54.85a6.33,6.33,0,0,0,6.33,6.22h1.25Z" transform="translate(-30 -17.53)"/><path class="cls-8" d="M848.15,301.41c-3.19,0-5,1.61-4.94,4.47v16.34c-4.51,6-13.75,12.74-28.59,12.74-21-.1-35.53-14.47-35.53-36s14.51-36,35.5-36c10.87,0,18.15,2.93,24,6.67l2,14h-.82c-3-11.31-12.05-17.67-25.1-17.67-16.76,0-28.12,13.21-28.12,33s11.36,32.93,28.12,33a33,33,0,0,0,22.3-8.57V305.91c0-2.88-1.89-4.51-5.08-4.51h-1.56v-1h19.36v1Z" transform="translate(-30 -17.53)"/><path class="cls-8" d="M943.75,317.6l-5.76,16H897v-1h1.25a6.33,6.33,0,0,0,6.33-6.21V271.58a6.33,6.33,0,0,0-6.33-6.21H897l0-1h21.63l0,1h-1.25a6.33,6.33,0,0,0-6.33,6.21v59h14.18c10.47,0,14.49-5.41,17.54-12.94Z" transform="translate(-30 -17.53)"/><path class="cls-8" d="M1033.58,333.57h-41l0-1h1.25a6.33,6.33,0,0,0,6.33-6.21V271a6.33,6.33,0,0,0-6.3-5.66h-1.25v-1h28.88c4.26-.05,10-1,11.79-1.8v12.48l-1,0v-1.76a5.9,5.9,0,0,0-5.54-5.88h-20.15V298h16.71a4.87,4.87,0,0,0,4.78-4.87v-1.46h1v15.64h-1v-1.46a4.87,4.87,0,0,0-4.68-4.86h-16.81v29.61h14.18c10.47,0,14.49-5.41,17.55-12.94h1Z" transform="translate(-30 -17.53)"/><path class="cls-8" d="M1121.57,304.42a15.61,15.61,0,0,1,5,12.05c0,10.93-7.14,18.48-18.51,18.48-4.84,0-12.85-1.38-16.73-5.4-.74-3.05-.37-9.34,1.14-13.78h.87c-1,10.19,5.45,16.71,14.25,16.22,7.22-.4,13.25-5.35,13.25-13.25a12.06,12.06,0,0,0-3.88-9.21L1098,292a16.59,16.59,0,0,1-5.35-12.25c0-8.33,6.1-16.71,17.37-16.71a42.68,42.68,0,0,1,8.48,1h3.91v12.12h-1c0-6.32-5-10.17-11.12-10.17-7.28,0-12.16,5.34-12.16,11.36a12.47,12.47,0,0,0,4,9.12Z" transform="translate(-30 -17.53)"/><path class="cls-8" d="M1201.24,333.57h-21.63l0-1h1.25a6.34,6.34,0,0,0,6.33-6.22V271.53a6.34,6.34,0,0,0-6.33-6.17h-1.25l0-1h21.63l0,1H1200a6.33,6.33,0,0,0-6.33,6.15v54.85a6.33,6.33,0,0,0,6.33,6.22h1.25Z" transform="translate(-30 -17.53)"/><path class="cls-8" d="M1310.55,326.36c2,4.4,5.66,6.22,8.69,6.22h.82v1h-22.25v-1h.86c2.56,0,5.2-2.25,3.76-6.21l-6.32-16.83h-26.63l-6.62,16.89c-1.39,3.92,1.24,6.15,3.78,6.15h.87v1h-19.9v-1h.89c3,0,6.66-1.82,8.66-6.22l22.42-53.19s3.66-8,3.66-10.18h.89ZM1295,306.58l-11.91-31.72-12.43,31.72Z" transform="translate(-30 -17.53)"/><path class="cls-8" d="M821.75,396.29V398H819a8.7,8.7,0,0,0-9,8.07v67.52c0,26.77-18.42,44.62-46,44.62-28.41,0-47.35-17.73-47.35-44.32V406.45a8.7,8.7,0,0,0-9-8.46h-2.78v-1.7h34.68V398h-2.78c-4.85,0-8.8,3.42-9,8.2v65.18c0,24.87,14.51,41.45,36.26,41.45,22.81,0,38-15.7,38.05-39.25V406.21a8.69,8.69,0,0,0-9-8.22h-2.79v-1.7Z" transform="translate(-30 -17.53)"/><path class="cls-8" d="M964.15,413.36l0,1.71h-2.84a9.34,9.34,0,0,0-9.49,8.54v72.81a167.42,167.42,0,0,0,1.62,21.78h-1.62L863,433.94v71.25a9.32,9.32,0,0,0,9.51,8.92h2.84l0,1.71H843.08l0-1.71h2.84a9.32,9.32,0,0,0,9.51-8.92V432.14a143.63,143.63,0,0,0-1.63-21.34l1.83.09,88.6,83.51V423.6a9.34,9.34,0,0,0-9.49-8.54h-2.84l0-1.7Z" transform="translate(-30 -17.53)"/><path class="cls-8" d="M988.9,515.81l0-1.71h2.28c6.35,0,11.47-4.12,11.6-9.24V424.32c-.13-5.13-5.26-9.26-11.61-9.26h-2.28l0-1.71h38.68v1.71h-2.3c-6.21,0-11.28,4-11.58,8.95v81c.2,5.06,5.31,9.11,11.59,9.11h2.27l0,1.71Z" transform="translate(-30 -17.53)"/><path class="cls-8" d="M1167.47,464.58c0,31.73-25.76,53.62-57.61,53.62s-57.62-21.89-57.62-53.62S1078,411,1109.86,411,1167.47,432.85,1167.47,464.58Zm-12.64,0c0-28.87-19.86-48.5-45-48.5s-45,19.63-45,48.5,19.85,48.51,45,48.51S1154.83,493.45,1154.83,464.58Zm-46.18-63.34c7.23-7.79,14.45-15.41,21.68-22.35a39.37,39.37,0,0,1,7,9c-9.15,5.36-18.31,10.05-27.46,14.56Z" transform="translate(-30 -17.53)"/><path class="cls-8" d="M1311.45,413.36l0,1.71h-2.84a9.34,9.34,0,0,0-9.49,8.54v72.81a167.42,167.42,0,0,0,1.62,21.78h-1.62l-88.81-84.26v71.25a9.32,9.32,0,0,0,9.51,8.92h2.84l0,1.71h-32.28l0-1.71h2.84a9.32,9.32,0,0,0,9.51-8.92V432.14a142.78,142.78,0,0,0-1.64-21.34l1.84.09,88.6,83.51V423.6a9.35,9.35,0,0,0-9.49-8.54h-2.84l0-1.7Z" transform="translate(-30 -17.53)"/><path class="cls-8" d="M1500.18,466l-2.08,26.8c-9,14.71-24.27,25.43-48,25.43-35.71-.17-61-24.58-61-62.32,0-37.05,24.41-62,62-62,16.73,0,30.39,5,40.38,11.53l3.45,24.12h-1.42c-5.19-19.93-21.92-30.52-42.44-30.53-30,0-49.14,22.71-49.14,56.68,0,34.32,19.46,56.69,48.17,57.39,24.24-.07,44.76-12.15,48.64-47.11Z" transform="translate(-30 -17.53)"/><path class="cls-8" d="M1570.24,413.36c21.52,0,34.71,10.41,34.71,27.66,0,14.48-11.22,26.58-26.55,28.11,3.73,1.69,9.5,8.2,13.16,13.38,0,0,7.88,10.7,14.94,18.62s11.73,12.89,21.2,13v1.71h-5.38c-18.89,0-26.35-8.59-31.7-15-1.93-2.32-15.4-21.72-16.73-23.39-4.63-5.8-10.55-11.5-17.31-11.5v-1.58s4.21.07,9.8-.07c9.44-.24,20.2-.33,25.1-14.69a30,30,0,0,0,1.19-9.73c-.36-12.79-9-20.31-22.71-21-9.6-.49-18-.06-19.63-.15v86.17a9.45,9.45,0,0,0,9.7,9.26h2.31l0,1.71h-34.92l0-1.71h2.3a9.47,9.47,0,0,0,9.7-9V424c-.17-5.06-4.27-8.88-9.7-8.88h-2.3l0-1.71Z" transform="translate(-30 -17.53)"/><path class="cls-8" d="M1643.9,515.81l0-1.71h2.28c6.35,0,11.47-4.12,11.6-9.24V424.32c-.13-5.13-5.26-9.26-11.61-9.26h-2.28l0-1.71h38.68v1.71h-2.3c-6.21,0-11.28,4-11.58,8.95v81c.2,5.06,5.31,9.11,11.59,9.11h2.27l0,1.71Z" transform="translate(-30 -17.53)"/><path class="cls-8" d="M1763.17,472.37c5.26,4.42,7.67,11.7,7.73,18.34.13,15.24-13.38,27.49-30.23,27.49-10.11,0-23.23-2.47-29.45-8-1.07-4.55-.64-14.61,1.7-21.2h2c-1.5,15.38,8.85,24.55,23.92,24.12,14.11-.4,22.75-7.76,22.75-18.86a16.86,16.86,0,0,0-6.22-13.51l-34.16-26.36c-6.35-5.43-8.07-12.52-8.15-18.45-.21-13.87,12.42-24.93,28.23-24.93a74.61,74.61,0,0,1,16.88,1.58h5.71l.26,18.58h-2c0-9.47-6.33-15.1-19.73-15.1-11.4,0-20.58,7.21-20.52,16.28,0,4.39,1.36,9.15,6.71,13.45Z" transform="translate(-30 -17.53)"/><path class="cls-8" d="M1866.72,413.19c6.78,0,16.11-1.51,19.07-2.68v19.22l-1.82,0v-2.62a8.46,8.46,0,0,0-8.54-8.78h-30.9v86.75a9.76,9.76,0,0,0,10,9h2l0,1.71h-35.19l0-1.71h2c5.47,0,9.92-4.12,10-9.25V418.31h-30.92a8.45,8.45,0,0,0-8.54,8.78v2.62l-1.82,0V410.51c3,1.17,12.29,2.68,19,2.68Z" transform="translate(-30 -17.53)"/><path class="cls-8" d="M1907,515.81l0-1.71h2.28c6.35,0,11.48-4.12,11.61-9.24V424.32c-.13-5.13-5.26-9.26-11.62-9.26H1907l0-1.71h38.68v1.71h-2.3c-6.2,0-11.27,4-11.58,8.95v81c.2,5.06,5.32,9.11,11.59,9.11h2.28l0,1.71Z" transform="translate(-30 -17.53)"/><path class="cls-8" d="M2064,504.15c3.48,7,8.62,10,13.18,10h1.29v1.71h-35.08v-1.69h1.36c3.89,0,8.27-3.71,6-10.25l-9.32-22.72h-43.2l-9.4,22.25c-2.61,6.83,1.88,10.72,5.87,10.72h1.36v1.69h-32.54V514.1h1.36c4.54,0,9.88-2.9,13.38-9.86l35.35-75.68c-.05,0,6.22-13.12,6.58-17.59h1.61ZM2039.34,476l-19.18-46.73L2000.42,476Z" transform="translate(-30 -17.53)"/><path class="cls-8" d="M2214,413.36l0,1.71h-2.84a9.33,9.33,0,0,0-9.49,8.54v72.81a167.42,167.42,0,0,0,1.62,21.78h-1.63l-88.8-84.26v71.25a9.32,9.32,0,0,0,9.51,8.92h2.84l0,1.71H2093l0-1.71h2.84a9.32,9.32,0,0,0,9.51-8.92V432.14a142.78,142.78,0,0,0-1.64-21.34l1.83.09,88.61,83.51V423.6a9.35,9.35,0,0,0-9.49-8.54h-2.84l0-1.7Z" transform="translate(-30 -17.53)"/><path class="cls-8" d="M2329,504.15c3.48,7,8.62,10,13.18,10h1.29v1.71h-35.07v-1.69h1.36c3.89,0,8.27-3.71,6-10.25l-9.33-22.72h-43.19l-9.4,22.25c-2.61,6.83,1.88,10.72,5.86,10.72h1.36v1.69h-32.53V514.1h1.35c4.54,0,9.89-2.9,13.39-9.86l35.35-75.68s6.22-13.12,6.57-17.59h1.62ZM2304.35,476l-19.18-46.73L2265.42,476Z" transform="translate(-30 -17.53)"/></svg>